<svg width="647" height="503" viewBox="0 0 647 503" fill="none" xmlns="http://www.w3.org/2000/svg">
<g clip-path="url(#clip0)">
<path d="M189.034 0L85.9896 55.8412C87.7516 58.8761 88.8868 62.2341 89.328 65.716C89.7691 69.198 89.5071 72.7331 88.5576 76.1119C87.6081 79.4907 85.9904 82.6445 83.8003 85.3863C81.6102 88.1281 78.8923 90.4022 75.8076 92.0739C72.7229 93.7455 69.3342 94.7807 65.8423 95.118C62.3504 95.4553 58.8264 95.088 55.479 94.0377C52.1316 92.9875 49.029 91.2757 46.3549 89.0038C43.6809 86.7319 41.4899 83.9461 39.9118 80.8115L4.77673 99.8517L95.7874 267.955L280.044 168.103L189.034 0Z" fill="#F2F2F2"/>
<path d="M61.7557 90.2939C73.5042 90.2939 83.0282 80.7653 83.0282 69.0112C83.0282 57.2571 73.5042 47.7285 61.7557 47.7285C50.0072 47.7285 40.4832 57.2571 40.4832 69.0112C40.4832 80.7653 50.0072 90.2939 61.7557 90.2939Z" fill="#6C63FF"/>
<path d="M447.78 450.025L559.192 413.667C558.005 410.364 557.493 406.856 557.686 403.352C557.879 399.847 558.773 396.417 560.315 393.265C561.858 390.113 564.017 387.302 566.665 385C569.313 382.697 572.395 380.95 575.731 379.862C579.066 378.773 582.585 378.366 586.081 378.663C589.576 378.961 592.977 379.957 596.08 381.593C599.184 383.23 601.927 385.472 604.149 388.189C606.37 390.906 608.024 394.041 609.012 397.409L647 385.011L587.742 203.257L388.522 268.271L447.78 450.025Z" fill="#F2F2F2"/>
<path d="M585.401 426.361C597.149 426.361 606.673 416.833 606.673 405.079C606.673 393.324 597.149 383.796 585.401 383.796C573.652 383.796 564.128 393.324 564.128 405.079C564.128 416.833 573.652 426.361 585.401 426.361Z" fill="#6C63FF"/>
<path d="M589.79 99.7129H75.3965V333.521H589.79V99.7129Z" fill="#3F3D56"/>
<path d="M581.304 108.203H83.8827V320.459H581.304V108.203Z" fill="white"/>
<path d="M530.713 310.337H482.407V326.664H530.713V310.337Z" fill="#3F3D56"/>
<path d="M479.796 322.745H444.546V327.317H479.796V322.745Z" fill="#6C63FF"/>
<path d="M124.355 188.534H314.315L343.766 202.888L390.691 225.761L421.372 168.288H508.192" stroke="#3F3D56" stroke-width="2" stroke-miterlimit="10"/>
<path d="M199.05 188.534L213.134 221.842H247.731" stroke="#3F3D56" stroke-width="2" stroke-miterlimit="10"/>
<path d="M251.848 188.534L299.954 162.41H333.899" stroke="#3F3D56" stroke-width="2" stroke-miterlimit="10"/>
<path d="M198.773 194.412C202.017 194.412 204.648 191.78 204.648 188.534C204.648 185.288 202.017 182.656 198.773 182.656C195.528 182.656 192.898 185.288 192.898 188.534C192.898 191.78 195.528 194.412 198.773 194.412Z" fill="#6C63FF"/>
<path d="M253.606 194.412C256.851 194.412 259.482 191.78 259.482 188.534C259.482 185.288 256.851 182.656 253.606 182.656C250.362 182.656 247.731 185.288 247.731 188.534C247.731 191.78 250.362 194.412 253.606 194.412Z" fill="#6C63FF"/>
<path d="M343.691 202.902L347.607 261.028H381.552" stroke="#3F3D56" stroke-width="2" stroke-miterlimit="10"/>
<path d="M409.067 191.338L371.76 162.41H407.011" stroke="#3F3D56" stroke-width="2" stroke-miterlimit="10"/>
<path d="M470.69 168.288L506.887 197.024H540.831" stroke="#3F3D56" stroke-width="2" stroke-miterlimit="10"/>
<path d="M343.691 208.78C346.935 208.78 349.566 206.149 349.566 202.902C349.566 199.656 346.935 197.024 343.691 197.024C340.446 197.024 337.816 199.656 337.816 202.902C337.816 206.149 340.446 208.78 343.691 208.78Z" fill="#6C63FF"/>
<path d="M470.331 174.166C473.575 174.166 476.206 171.534 476.206 168.288C476.206 165.042 473.575 162.41 470.331 162.41C467.086 162.41 464.456 165.042 464.456 168.288C464.456 171.534 467.086 174.166 470.331 174.166Z" fill="#6C63FF"/>
<path d="M408.969 197.024C412.214 197.024 414.844 194.393 414.844 191.146C414.844 187.9 412.214 185.269 408.969 185.269C405.724 185.269 403.094 187.9 403.094 191.146C403.094 194.393 405.724 197.024 408.969 197.024Z" fill="#6C63FF"/>
<path d="M213.787 227.067H247.731" stroke="#3F3D56" stroke-width="2" stroke-miterlimit="10"/>
<path d="M99.2231 503C154.023 503 198.446 494.813 198.446 484.713C198.446 474.614 154.023 466.427 99.2231 466.427C44.4237 466.427 0 474.614 0 484.713C0 494.813 44.4237 503 99.2231 503Z" fill="#F2F2F2"/>
<path d="M167.367 322.406L149.665 331.341L150.811 333.624L168.512 324.689L167.367 322.406Z" fill="#6C63FF"/>
<path d="M164.489 305.787L163.693 310.561C163.693 310.561 164.886 343.579 156.139 333.236C147.391 322.893 153.355 308.969 153.355 308.969L155.741 304.991L164.489 305.787Z" fill="#FBBEBE"/>
<path d="M113.593 153.027C113.593 153.027 112.003 169.735 111.207 170.531C110.412 171.327 123.136 186.444 123.136 186.444L134.269 176.1C134.269 176.1 133.474 160.984 135.86 157.801C138.246 154.619 113.593 153.027 113.593 153.027Z" fill="#FBBEBE"/>
<path opacity="0.1" d="M113.593 153.027C113.593 153.027 112.003 169.735 111.207 170.531C110.412 171.327 123.136 186.444 123.136 186.444L134.269 176.1C134.269 176.1 133.474 160.984 135.86 157.801C138.246 154.619 113.593 153.027 113.593 153.027Z" fill="black"/>
<path d="M84.1693 457.751V472.072L78.6023 472.869L70.6501 470.481L73.0354 455.364L84.1693 457.751Z" fill="#3F3D56"/>
<path d="M77.0118 464.912C77.0118 464.912 74.6261 458.547 70.6498 459.342C66.6736 460.138 65.8784 464.912 65.8784 464.912C65.8784 464.912 62.6974 476.846 57.9259 480.824C53.1545 484.802 48.383 495.145 57.9259 496.737C67.4689 498.328 75.4213 494.35 75.4213 493.554C75.4213 492.758 77.807 487.985 81.7833 487.189C85.7595 486.393 88.9404 485.598 88.9404 482.415C88.9404 479.233 86.5547 476.05 86.5547 476.05C86.5547 476.05 85.7595 460.959 84.169 462.935C83.0691 464.497 82.2608 466.244 81.7833 468.094L77.0118 464.912Z" fill="#2F2E41"/>
<path d="M118.365 450.59L115.184 462.524L123.136 464.116L127.112 460.138L127.907 449.795L118.365 450.59Z" fill="#3F3D56"/>
<path d="M117.569 460.934C117.569 460.934 120.75 458.547 122.341 458.547H124.726C124.726 458.547 124.726 452.978 128.703 452.978C132.679 452.978 131.884 456.956 131.884 456.956C131.884 456.956 140.631 470.481 143.017 472.868C145.403 475.255 158.127 482.416 147.788 485.598C137.45 488.781 130.293 488.781 125.522 483.211C125.522 483.211 120.75 480.824 117.569 480.824C114.388 480.824 110.412 479.233 110.412 476.846C110.412 474.459 112.798 469.686 112.798 469.686C112.798 469.686 114.388 455.364 115.183 456.956C115.979 458.547 117.569 460.934 117.569 460.934Z" fill="#2F2E41"/>
<path d="M83.3738 267.597V293.852C83.3738 293.852 74.6261 344.772 74.6261 361.48C74.6261 378.188 61.1069 457.751 67.4689 459.342C73.8309 460.933 88.9405 463.32 89.7357 460.933C90.531 458.546 96.0977 382.962 96.8929 382.167C97.6882 381.371 114.388 318.517 114.388 318.517L117.569 319.312L119.16 390.918C119.16 390.918 111.207 455.364 115.183 455.364C119.16 455.364 135.86 454.568 135.86 449.795C135.86 445.021 144.607 356.707 144.607 356.707C144.607 356.707 154.946 286.692 150.969 279.531C146.993 272.37 146.993 268.392 146.993 268.392L83.3738 267.597Z" fill="#2F2E41"/>
<path d="M126.714 165.359C135.498 165.359 142.619 158.235 142.619 149.447C142.619 140.658 135.498 133.534 126.714 133.534C117.93 133.534 110.81 140.658 110.81 149.447C110.81 158.235 117.93 165.359 126.714 165.359Z" fill="#FBBEBE"/>
<path d="M123.136 176.896C123.136 176.896 113.195 168.542 112.4 165.359C112.4 165.359 107.231 170.531 107.231 171.327C107.231 172.122 84.9643 174.509 79.3976 180.874C73.8309 187.239 69.0594 200.765 69.0594 200.765L82.5785 226.225C82.5785 226.225 83.3738 240.546 83.3738 242.137C83.3738 243.728 79.3976 269.188 80.9881 269.984C82.5785 270.779 98.4834 278.736 112.003 277.144C125.522 275.553 139.041 273.166 143.017 273.166C146.993 273.166 150.174 274.758 150.174 273.166C150.174 271.575 147.788 268.393 147.788 266.801C147.788 265.21 146.993 261.232 146.993 258.845C146.993 256.458 145.403 252.48 145.403 249.298C145.403 246.115 162.898 203.151 162.898 203.151C162.898 203.151 162.103 189.626 149.379 183.261C136.655 176.896 135.065 174.509 135.065 174.509C135.065 174.509 134.817 169.735 134.145 169.735C133.474 169.735 131.088 176.896 124.726 177.692L123.136 176.896Z" fill="#575A88"/>
<path d="M80.1926 282.715L85.7595 291.466L100.074 288.284L89.7356 276.35L80.1926 282.715Z" fill="#FBBEBE"/>
<path d="M158.127 196.786L162.898 203.151C162.898 203.151 172.441 249.297 170.851 266.005C169.26 282.714 167.67 295.444 167.67 295.444C167.67 295.444 170.851 307.378 168.465 307.378C166.079 307.378 151.765 308.173 151.765 305.787C151.765 303.4 153.355 288.283 153.355 288.283L149.379 253.275L140.631 241.341L158.127 196.786Z" fill="#575A88"/>
<path d="M115.912 141.721C116.887 141.308 118.014 141.643 119.058 141.467C120.284 141.26 121.381 140.351 122.619 140.466C123.206 140.575 123.776 140.76 124.315 141.016C124.585 141.144 124.878 141.215 125.177 141.225C125.475 141.236 125.773 141.186 126.052 141.079C126.184 141.017 126.302 140.926 126.395 140.814C126.489 140.701 126.556 140.569 126.592 140.427C126.629 140.285 126.633 140.137 126.604 139.993C126.576 139.849 126.516 139.713 126.429 139.595C127.477 139.503 128.467 139.077 129.254 138.379C129.411 138.216 129.593 138.079 129.793 137.974C130.027 137.913 130.27 137.901 130.508 137.938C130.747 137.975 130.975 138.061 131.179 138.19L132.998 139.029C133.408 139.174 133.769 139.432 134.038 139.774C134.255 140.111 134.297 140.565 134.604 140.824C134.995 141.154 135.58 140.992 136.09 141.025C136.554 141.07 136.985 141.284 137.301 141.625C137.617 141.967 137.797 142.413 137.807 142.879C137.8 143.414 137.605 144.069 138.028 144.396C138.273 144.586 138.62 144.555 138.907 144.672C139.651 144.974 139.654 146.01 139.544 146.806C139.434 147.601 139.489 148.651 140.253 148.896C140.792 149.068 141.342 148.7 141.901 148.618C142.745 148.495 143.526 149.023 144.277 149.427C145.028 149.831 146.025 150.103 146.677 149.552C147.282 149.039 147.243 148.101 147.077 147.325C146.838 146.212 146.445 145.138 145.91 144.133C145.712 143.838 145.595 143.495 145.572 143.14C145.617 142.89 145.715 142.653 145.859 142.443C146.003 142.234 146.189 142.057 146.406 141.925C147.326 141.197 148.385 140.465 148.683 139.329C148.901 138.496 148.656 137.618 148.675 136.756C148.698 135.709 149.114 134.665 148.919 133.635C148.565 131.769 146.488 130.87 145.148 129.524C143.306 127.675 142.708 124.717 140.534 123.272C138.795 122.117 136.521 122.255 134.541 121.594C132.365 120.867 130.614 119.199 128.468 118.389C127.297 117.957 126.045 117.789 124.801 117.899C123.558 118.008 122.354 118.391 121.275 119.02C120.635 119.495 119.921 119.861 119.161 120.101C118.521 120.175 117.874 120.168 117.236 120.079C115.968 120.013 114.704 120.274 113.565 120.837C113.129 121.011 112.766 121.329 112.537 121.739C112.153 122.593 112.711 123.927 111.869 124.335C111.476 124.526 111.012 124.343 110.576 124.353C109.728 124.372 109.075 125.11 108.672 125.857C108.357 126.646 107.905 127.373 107.338 128.005C106.301 128.914 104.417 129.064 104.146 130.416C104.141 130.988 104.174 131.56 104.243 132.128C104.165 133.326 102.884 134.237 102.95 135.436C103.028 136.819 104.784 137.494 105.253 138.797C105.61 139.789 105.14 140.862 104.816 141.865C104.493 142.869 104.395 144.155 105.231 144.798C105.559 145.049 105.98 145.153 106.314 145.396C107.179 146.025 107.168 147.295 107.072 148.361C107.017 148.582 107.017 148.814 107.071 149.035C107.126 149.256 107.234 149.461 107.387 149.631C107.529 149.717 107.689 149.772 107.855 149.792C108.02 149.812 108.188 149.796 108.348 149.746C108.867 149.62 109.355 149.389 109.782 149.068C110.209 148.746 110.566 148.341 110.831 147.877C111.109 147.416 111.165 147.01 111.671 146.765C112.015 146.599 112.431 146.748 112.781 146.532C114.444 145.508 113.871 142.587 115.912 141.721Z" fill="#2F2E41"/>
<path d="M71.4451 198.378L69.0593 200.765C69.0593 200.765 54.745 243.728 59.5164 253.276C64.2878 262.823 73.8308 286.692 77.0118 285.897C80.1927 285.101 91.3262 277.94 91.3262 277.145C91.3262 276.349 77.807 254.072 77.807 254.072C77.807 254.072 76.2165 249.298 77.0118 248.502C77.807 247.707 77.807 248.502 77.0118 246.911C76.2165 245.32 76.2165 246.911 77.807 245.32C79.3975 243.728 79.3975 243.728 79.3975 242.933C79.3975 242.137 84.169 222.247 84.169 222.247L71.4451 198.378Z" fill="#575A88"/>
<path d="M83.7711 291.864L101.267 286.295L103.652 291.864L84.5668 295.842L83.7711 291.864Z" fill="#2F2E41"/>
<path opacity="0.1" d="M83.7711 291.864L101.267 286.295L103.652 291.864L84.5668 295.842L83.7711 291.864Z" fill="black"/>
<path opacity="0.1" d="M107.628 171.725L121.148 182.863L122.738 180.476L107.628 171.725Z" fill="black"/>
<path opacity="0.1" d="M134.667 174.907L125.124 180.476L125.919 182.863L134.667 174.907Z" fill="black"/>
</g>
<defs>
<clipPath id="clip0">
<rect width="647" height="503" fill="white"/>
</clipPath>
</defs>
</svg>
